<svg xmlns="http://www.w3.org/2000/svg" width="32" height="32"><path d="M16 3a112 112 0 0 1 9 1l2 1 1 2 1 3a113 113 0 0 1-1 15l-1 2-2 1-3 1a113 113 0 0 1-15-1l-2-1-1-2-1-3A113 113 0 0 1 4 7l1-2 2-1 3-1h6zm0-3A117 117 0 0 0 6 1C4 1 4 2 3 3S1 4 1 6L0 9a118 118 0 0 0 1 17c0 2 1 2 2 3s1 2 3 2l3 1a117 117 0 0 0 17-1c2 0 2-1 3-2l2-3 1-3a117 117 0 0 0-1-17c0-2-1-2-2-3s-1-2-3-2l-3-1h-7z"/><path d="M16 8a8 8 0 1 0 0 16 8 8 0 0 0 0-16zm0 13a5 5 0 1 1 0-10 5 5 0 0 1 0 10zM26 7a2 2 0 1 1-3 0 2 2 0 0 1 3 0z"/></svg>